<svg xmlns="http://www.w3.org/2000/svg" viewBox="0 0 210 60">
  <svg x="0" y="2" width="56" height="56" viewBox="0 0 100 100">
    <defs>
      <linearGradient id="gi" gradientUnits="userSpaceOnUse" x1="0" y1="0" x2="100" y2="100">
        <stop offset="0%" stop-color="#9060F2"/>
        <stop offset="100%" stop-color="#4244CA"/>
      </linearGradient>
      <mask id="mi">
        <rect width="100" height="100" fill="white"/>
        <rect x="61" y="16" width="16" height="22" rx="3" fill="black"/>
      </mask>
    </defs>
    <g fill="url(#gi)" mask="url(#mi)">
      <path d="M8 8H40L24 32H8z"/>
      <rect x="8" y="35" width="14" height="17" rx="2"/>
      <rect x="8" y="56" width="23" height="8" rx="2"/>
      <path d="M8 68H22L46 92H32z"/>
      <rect x="47" y="8" width="10" height="84" rx="2"/>
      <path d="M57 8H78Q89 8 89 27Q89 46 78 46H57z"/>
      <path d="M61 46H73L91 92H79z"/>
    </g>
  </svg>
  <text x="66" y="43"
    font-family="'Montserrat','Inter',-apple-system,sans-serif"
    font-weight="800"
    font-size="40"
    fill="white"
    letter-spacing="-1">Revy</text>
</svg>
